<?xml version="1.0" encoding="UTF-8" standalone="no"?>
<svg
    xmlns="http://www.w3.org/2000/svg"
    version="1.1"
    id="Layer_1"
    x="0px"
    y="0px"
    viewBox="0 0 415.8 60.599996"
    xml:space="preserve"
    width="415.79999"
    height="60.599998">
  <defs
   id="defs27" />
   pagecolor="#ffffff"
   bordercolor="#666666"
   borderopacity="1"
   objecttolerance="10"
   gridtolerance="10"
   guidetolerance="10"
   id="namedview25"
   showgrid="false"
   fit-margin-top="0"
   fit-margin-left="0"
   fit-margin-right="0"
   fit-margin-bottom="0"
/>
<style
   type="text/css"
   id="style2">
	.st0{fill-rule:evenodd;clip-rule:evenodd;fill:#F89C27;}
	.st1{fill-rule:evenodd;clip-rule:evenodd;fill:#074975;}
</style>
<g
   id="g22"
   transform="translate(-38.8,-352)">
	<g
   id="g20">
		<g
   id="g14">

    <path
      d="m 44.5,352.1 v 0 c 3.1,0 5.7,2.5 5.7,5.7 v 46
         c 0,3.1 -2.5,5.7 -5.7,5.7 v 0 c -3.1,0 -5.7,-2.5 -5.7,-5.7
         v -46 c 0,-3.2 2.6,-5.7 5.7,-5.7 z"
      style="fill:#f89c27;"
    />
    <path
       class="st1"
       d="m 105.2,352.1 v 0 h 39 c 3.7,0 6.8,3 6.8,6.8 v 0
          c 0,3.7 -3,6.8 -6.8,6.8 h -33.3 v 38.1 c 0,3.1 -2.5,5.7 -5.7,5.7
          v 0 c -3.1,0 -5.7,-2.5 -5.7,-5.7 V 365.7 H 66.2 c -3.7,0 -6.8,-3 -6.8,-6.8
          v 0 c 0,-3.7 3,-6.8 6.8,-6.8 z"
       id="path6"
       style="fill:#074975;fill-rule:evenodd"
    />

			<path
   class="st0"
   d="m 161.9,358.7 v 0 c 0,-3.7 3,-6.7 6.7,-6.7 h 76.7 c 3.7,0 6.7,3 6.7,6.7 v 0 c 0,3.7 -3,6.7 -6.7,6.7 h -76.7 c -3.7,0 -6.7,-3 -6.7,-6.7 z m 0,22.6 v 0 c 0,-3.7 3,-6.7 6.7,-6.7 h 76.7 c 3.7,0 6.7,3 6.7,6.7 v 0 c 0,3.7 -3,6.7 -6.7,6.7 h -76.7 c -3.7,0 -6.7,-3 -6.7,-6.7 z m 0,21.6 v 0 c 0,-3.7 3,-6.7 6.7,-6.7 h 76.7 c 3.7,0 6.7,3 6.7,6.7 v 0 c 0,3.7 -3,6.7 -6.7,6.7 h -76.7 c -3.7,-0.1 -6.7,-3.1 -6.7,-6.7 z"
   id="path8"
   style="clip-rule:evenodd;fill:#f89c27;fill-rule:evenodd" />
			<path
   class="st1"
   d="m 263.6,355 v 0 c 1.6,-2.8 5.2,-3.7 8,-2.1 l 36.7,21.2 36.7,-21.2 c 2.8,-1.6 6.4,-0.6 8,2.1 v 0 c 1.6,2.8 0.6,6.4 -2.1,8 l -30.9,17.9 30.9,17.9 c 2.8,1.6 3.7,5.2 2.1,8 v 0 c -1.6,2.8 -5.2,3.7 -8,2.1 l -36.7,-21.2 -36.7,21.2 c -2.8,1.6 -6.4,0.6 -8,-2.1 v 0 c -1.6,-2.8 -0.6,-6.4 2.1,-8 L 296.6,380.9 265.7,363 c -2.8,-1.7 -3.7,-5.3 -2.1,-8 z"
   id="path10"
   style="clip-rule:evenodd;fill:#074975;fill-rule:evenodd" />
			<path
   class="st1"
   d="m 407.3,352.1 v 0 h 39 c 3.7,0 6.8,3 6.8,6.8 v 0 c 0,3.7 -3,6.8 -6.8,6.8 H 413 v 38.1 c 0,3.1 -2.5,5.7 -5.7,5.7 v 0 c -3.1,0 -5.7,-2.5 -5.7,-5.7 v -38.1 h -33.3 c -3.7,0 -6.8,-3 -6.8,-6.8 v 0 c 0,-3.7 3,-6.8 6.8,-6.8 z"
   id="path12"
   style="clip-rule:evenodd;fill:#074975;fill-rule:evenodd" />
		</g>
	</g>
</g>
</svg>